<?xml version="1.0" encoding="utf-8"?>
<!-- Generator: Adobe Illustrator 17.0.0, SVG Export Plug-In . SVG Version: 6.00 Build 0)  -->
<!DOCTYPE svg PUBLIC "-//W3C//DTD SVG 1.1//EN" "http://www.w3.org/Graphics/SVG/1.1/DTD/svg11.dtd">
<svg version="1.1" id="Layer_1" xmlns="http://www.w3.org/2000/svg" xmlns:xlink="http://www.w3.org/1999/xlink" x="0px" y="0px"
	 width="30px" height="30px" viewBox="0 0 30 30" enable-background="new 0 0 30 30" xml:space="preserve">
<path d="M27.2,8.115c-0.928,0.412-2.315,0.96-3.36,1.085c1.069-0.64,2.134-2.15,2.52-3.36c-0.815,0.485-1.753,1.138-2.711,1.489
	L23,6.68C22.059,5.675,21.127,5,19.64,5c-2.854,0-5.04,2.186-5.04,5.04c0,0.336,0.039,0.588,0.092,0.803L14.6,10.88
	c-5.04,0-8.371-1.072-10.92-4.2C3.235,7.443,2.84,8.252,2.84,9.2c0,1.794,1.132,3.271,2.52,4.2c-0.848-0.028-1.823-0.455-2.52-0.84
	c0,2.503,3.516,5.403,5.88,5.88c-0.84,0.84-3.883,0.062-4.2,0c0.659,2.055,2.78,3.318,5.04,3.36
	c-1.768,1.384-3.903,2.108-6.325,2.108c-0.42,0-0.83-0.025-1.235-0.071C4.287,25.303,7.479,26,10.4,26
	c9.51,0,14.28-7.448,14.28-14.28c0-0.225,0.007-0.618,0-0.84C25.688,10.151,26.504,9.151,27.2,8.115z"/>
</svg>
