<?xml version="1.0" encoding="utf-8"?>
<!-- Generator: Adobe Illustrator 17.0.0, SVG Export Plug-In . SVG Version: 6.00 Build 0)  -->
<!DOCTYPE svg PUBLIC "-//W3C//DTD SVG 1.1//EN" "http://www.w3.org/Graphics/SVG/1.1/DTD/svg11.dtd">
<svg version="1.1" id="Layer_1" xmlns="http://www.w3.org/2000/svg" xmlns:xlink="http://www.w3.org/1999/xlink" x="0px" y="0px"
	 width="30px" height="30px" viewBox="0 0 30 30" enable-background="new 0 0 30 30" xml:space="preserve">
<path d="M15.252,22.992c0.888,0,0.888-1.279,0.888-1.777c0-0.888,0.888-1.777,1.777-1.777s2.412,1.524,3.554,2.665
	c0.888,0.888,0.888,0.888,1.777,0.888h2.665c0,0,1.777-0.068,1.777-1.777c0-0.555-0.609-1.497-2.665-3.554
	c-1.777-1.777-2.688-0.859,0-4.442c1.637-2.182,2.829-4.158,2.624-4.729c-0.195-0.545-4.75-1.413-5.29-0.601
	c-1.777,2.665-2.103,3.318-2.665,4.442c-0.888,1.777-0.977,2.665-1.777,2.665c-0.808,0-0.888-1.724-0.888-2.665
	c0-2.937,0.426-5.014-0.888-5.331h-2.665c-1.43,0-2.665,0.888-2.665,0.888s-1.102,0.86-0.888,0.888
	c0.265,0.036,1.777-0.368,1.777,0.888v1.777c0,0,0.009,3.554-0.888,3.554c-0.888,0-2.665-3.554-4.442-6.219
	C5.67,7.731,5.479,7.888,4.59,7.888c-0.952,0-1.777,0.037-2.665,0.037S0.923,8.493,1.037,8.777c1.777,4.442,3.054,7.232,6.43,10.747
	c3.096,3.225,5.165,3.396,6.897,3.469C14.808,23.01,14.363,22.992,15.252,22.992z"/>
</svg>
