<svg width="150" height="100" viewBox="0 0 150 100" xmlns="http://www.w3.org/2000/svg" xmlns:xlink="http://www.w3.org/1999/xlink"><svg viewBox="0 0 50 50" width="50" height="50" id="facebook"><path d="M26 20v-3c0-1.3.3-2 2.4-2H31v-5h-4c-5 0-7 3.3-7 7v3h-4v5h4v15h6V25h4.4l.6-5h-5z"/></svg><svg viewBox="0 0 50 50" width="50" height="50" id="spinner" x="50"><path d="M25 18c-.6 0-1-.4-1-1V9c0-.6.4-1 1-1s1 .4 1 1v8c0 .6-.4 1-1 1z"/><path opacity=".3" d="M25 42c-.6 0-1-.4-1-1v-8c0-.6.4-1 1-1s1 .4 1 1v8c0 .6-.4 1-1 1zM29 19c-.2 0-.3 0-.5-.1-.4-.3-.6-.8-.3-1.3l4-6.9c.3-.4.8-.6 1.3-.3.4.3.6.8.3 1.3l-4 6.9c-.2.2-.5.4-.8.4zM17 39.8c-.2 0-.3 0-.5-.1-.4-.3-.6-.8-.3-1.3l4-6.9c.3-.4.8-.6 1.3-.3.4.3.6.8.3 1.3l-4 6.9c-.2.2-.5.4-.8.4z"/><path opacity=".93" d="M21 19c-.3 0-.6-.2-.8-.5l-4-6.9c-.3-.4-.1-1 .3-1.3.4-.3 1-.1 1.3.3l4 6.9c.3.4.1 1-.3 1.3-.2.2-.3.2-.5.2z"/><path opacity=".3" d="M33 39.8c-.3 0-.6-.2-.8-.5l-4-6.9c-.3-.4-.1-1 .3-1.3.4-.3 1-.1 1.3.3l4 6.9c.3.4.1 1-.3 1.3-.2.1-.3.2-.5.2z"/><path opacity=".65" d="M17 26H9c-.6 0-1-.4-1-1s.4-1 1-1h8c.6 0 1 .4 1 1s-.4 1-1 1z"/><path opacity=".3" d="M41 26h-8c-.6 0-1-.4-1-1s.4-1 1-1h8c.6 0 1 .4 1 1s-.4 1-1 1z"/><path opacity=".86" d="M18.1 21.9c-.2 0-.3 0-.5-.1l-6.9-4c-.4-.3-.6-.8-.3-1.3.3-.4.8-.6 1.3-.3l6.9 4c.4.3.6.8.3 1.3-.2.3-.5.4-.8.4z"/><path opacity=".3" d="M38.9 33.9c-.2 0-.3 0-.5-.1l-6.9-4c-.4-.3-.6-.8-.3-1.3.3-.4.8-.6 1.3-.3l6.9 4c.4.3.6.8.3 1.3-.2.3-.5.4-.8.4z"/><path opacity=".44" d="M11.1 33.9c-.3 0-.6-.2-.8-.5-.3-.4-.1-1 .3-1.3l6.9-4c.4-.3 1-.1 1.3.3.3.4.1 1-.3 1.3l-6.9 4c-.1.2-.3.2-.5.2z"/><path opacity=".3" d="M31.9 21.9c-.3 0-.6-.2-.8-.5-.3-.4-.1-1 .3-1.3l6.9-4c.4-.3 1-.1 1.3.3.3.4.1 1-.3 1.3l-6.9 4c-.2.2-.3.2-.5.2z"/></svg><svg viewBox="0 0 50 50" width="50" height="50" id="twitter" y="50"><path d="M39.2 16.8c-1.1.5-2.2.8-3.5 1 1.2-.8 2.2-1.9 2.7-3.3-1.2.7-2.5 1.2-3.8 1.5-1.1-1.2-2.7-1.9-4.4-1.9-3.3 0-6.1 2.7-6.1 6.1 0 .5.1.9.2 1.4-5-.2-9.5-2.7-12.5-6.3-.5.7-.8 1.7-.8 2.8 0 2.1 1.1 4 2.7 5-1 0-1.9-.3-2.7-.8v.1c0 2.9 2.1 5.4 4.9 5.9-.5.1-1 .2-1.6.2-.4 0-.8 0-1.1-.1.8 2.4 3 4.2 5.7 4.2-2.1 1.6-4.7 2.6-7.5 2.6-.5 0-1 0-1.4-.1 2.4 1.9 5.6 2.9 9 2.9 11.1 0 17.2-9.2 17.2-17.2V20c1.2-.9 2.2-1.9 3-3.2z"/></svg><svg viewBox="0 0 50 50" width="50" height="50" id="vkontakte" x="50" y="50"><path fill-rule="evenodd" clip-rule="evenodd" d="M25.1 35.9h2s.6-.1.9-.4c.3-.3.3-.9.3-.9s0-2.6 1.2-3c1.2-.4 2.8 2.6 4.4 3.7 1.2.9 2.1.7 2.1.7l4.4-.1s2.3-.1 1.2-2c-.1-.1-.6-1.3-3.3-3.8-2.8-2.6-2.4-2.1.9-6.6 2-2.7 2.8-4.3 2.6-5.1-.2-.7-1.7-.5-1.7-.5h-5s-.4-.1-.6.1c-.3.2-.4.5-.4.5s-.8 2.1-1.8 3.9c-2.2 3.7-3.1 3.9-3.4 3.7-.8-.5-.6-2.2-.6-3.3 0-3.6.6-5.1-1.1-5.5-.5-.1-.9-.2-2.3-.2-1.8 0-3.3 0-4.1.4-.6.3-1 .9-.7.9.3 0 1.1.2 1.5.7.4.9.4 2.4.4 2.4s.3 4.3-.7 4.8c-.7.4-1.6-.4-3.6-3.8-1-1.7-1.8-3.7-1.8-3.7s-.1-.4-.4-.6c-.3-.2-.8-.3-.8-.3H10s-.7 0-1 .3c-.2.3 0 .8 0 .8s3.7 8.6 7.9 13c3.9 4.2 8.2 3.9 8.2 3.9z"/></svg><svg viewBox="0 0 50 50" width="50" height="50" id="youtube" x="100"><path d="M39.7 18.6s-.3-2.1-1.2-3c-1.1-1.2-2.4-1.2-3-1.3C31.3 14 25 14 25 14s-6.3 0-10.5.3c-.6.1-1.9.1-3 1.3-.9.9-1.2 3-1.2 3S10 21 10 23.4v2.2c0 2.4.3 4.9.3 4.9s.3 2.1 1.2 3c1.1 1.2 2.6 1.2 3.3 1.3 2.4.1 10.2.2 10.2.2s6.3 0 10.5-.3c.6-.1 1.9-.1 3-1.3.9-.9 1.2-3 1.2-3s.3-2.4.3-4.8v-2.2c0-2.4-.3-4.8-.3-4.8zm-17.8 9.8V20l8.1 4.2-8.1 4.2z"/></svg></svg>