<svg width="60" height="60" viewBox="0 0 60 60" xmlns="http://www.w3.org/2000/svg" xmlns:xlink="http://www.w3.org/1999/xlink"><svg width="30" height="30" viewBox="0 0 30 30" id="facebook"><path d="M20.187 15.567L21 11.484h-4.062V8.217c0-1.26.637-1.633 2.437-1.633H21V2.5h-3.25c-3.308 0-5.688 1.988-5.688 5.717v3.267H8v4.083h4.062V27h4.875V15.567h3.25z"/></svg><svg width="30" height="30" viewBox="0 0 30 30" id="twitter" x="30"><path d="M27.2 8.115c-.928.412-2.315.96-3.36 1.085 1.07-.64 2.134-2.15 2.52-3.36-.815.485-1.753 1.138-2.71 1.49L23 6.68C22.06 5.675 21.127 5 19.64 5c-2.854 0-5.04 2.186-5.04 5.04 0 .336.04.588.092.803l-.092.037c-5.04 0-8.37-1.072-10.92-4.2-.445.763-.84 1.572-.84 2.52 0 1.794 1.132 3.27 2.52 4.2-.848-.028-1.823-.455-2.52-.84 0 2.503 3.516 5.403 5.88 5.88-.84.84-3.883.062-4.2 0 .66 2.055 2.78 3.318 5.04 3.36-1.768 1.384-3.903 2.108-6.325 2.108-.42 0-.83-.025-1.235-.07C4.287 25.302 7.48 26 10.4 26c9.51 0 14.28-7.448 14.28-14.28 0-.225.007-.618 0-.84 1.008-.73 1.824-1.73 2.52-2.765z"/></svg><svg width="30" height="30" viewBox="0 0 30 30" id="vkontakte" y="30"><path d="M15.252 22.992c.888 0 .888-1.28.888-1.777 0-.888.888-1.777 1.777-1.777s2.412 1.524 3.554 2.665c.89.888.89.888 1.778.888h2.665s1.777-.067 1.777-1.776c0-.555-.61-1.497-2.665-3.554-1.777-1.777-2.688-.86 0-4.442 1.637-2.182 2.83-4.158 2.624-4.73-.196-.544-4.75-1.412-5.29-.6-1.778 2.665-2.104 3.318-2.666 4.442-.888 1.777-.977 2.665-1.777 2.665-.808 0-.888-1.724-.888-2.665 0-2.937.425-5.014-.89-5.33h-2.664c-1.43 0-2.665.887-2.665.887s-1.1.86-.887.888c.265.036 1.777-.368 1.777.888v1.777s.01 3.554-.888 3.554c-.888 0-2.665-3.554-4.442-6.22-.7-1.043-.89-.886-1.78-.886-.952 0-1.777.037-2.665.037s-1.002.568-.888.852c1.777 4.442 3.054 7.232 6.43 10.747 3.096 3.225 5.165 3.396 6.897 3.47.444.016 0-.002.888-.002z"/></svg></svg>